<svg width="40" height="40" viewBox="0 0 40 40" fill="none" xmlns="http://www.w3.org/2000/svg">
<path d="M32.1357 14.3614L32.134 14.349L32.1319 14.3366C31.1492 8.40174 26.025 4.03881 19.9999 4.00002L19.9999 3.99994L19.987 4.00002C13.9619 4.03881 8.8377 8.40174 7.85498 14.3366L7.8522 14.3534L7.84999 14.3703C7.53662 16.7661 7.96391 19.1999 9.07432 21.3464C10.5577 24.4367 12.3468 27.3714 14.415 30.1067C15.6842 31.8658 17.0625 33.5559 18.4234 35.2002C18.7878 35.6661 19.3327 35.9557 19.9228 35.9975L19.9638 36.0004L20.0049 35.9999C20.6381 35.9927 21.2342 35.6991 21.6253 35.2012C22.9899 33.5525 24.3536 31.8648 25.6331 30.1086C27.7029 27.3714 29.4933 24.4346 30.9774 21.342C32.0661 19.187 32.4703 16.7518 32.1357 14.3614Z" fill="#DE7000" stroke="#DE7000" stroke-width="2"/>
<path fill-rule="evenodd" clip-rule="evenodd" d="M19.9969 7.19413L19.9967 7.19297C19.8927 6.53345 18.5217 6.52695 18.4372 7.22871V11.8161C18.3983 11.9266 17.9467 11.9201 17.9174 11.8161C17.8719 10.9941 17.664 7.29693 17.6575 7.20921C17.5536 6.53345 16.2085 6.53345 16.1013 7.20921C16.0996 7.25472 16.0375 8.34964 15.9734 9.4786C15.9186 10.4453 15.8624 11.4369 15.8414 11.8161C15.8122 11.9201 15.3638 11.9266 15.3216 11.8161V7.22871C15.2371 6.5237 13.8693 6.53345 13.7654 7.19297L13.765 7.19544C13.7345 7.3745 13.2423 10.2654 13.2423 11.3775C13.2423 13.0734 14.1422 14.2885 15.4808 14.7758L15.0617 22.5114C15.0389 22.9597 15.3963 23.3333 15.8414 23.3333H17.9207C18.369 23.3333 18.7231 22.9565 18.7004 22.5114L18.2813 14.7758C19.6166 14.2885 20.5198 13.0767 20.5198 11.3775C20.5198 10.2659 20.0251 7.35982 19.9969 7.19413ZM23.382 22.4886L23.8693 16.475C18.7849 12.4984 23.2975 6.69914 25.9779 6.69914C26.41 6.69914 26.7576 7.05002 26.7576 7.47887V22.5536C26.7576 22.9857 26.41 23.3333 25.9779 23.3333H24.1585C23.7036 23.3333 23.343 22.9435 23.382 22.4886Z" fill="white"/>
</svg>
